<!--?xml version="1.0" standalone="no"?-->
              <svg id="sw-js-blob-svg" viewBox="0 0 100 100" xmlns="http://www.w3.org/2000/svg" version="1.1">
                    <defs> 
                        <linearGradient id="sw-gradient" x1="0" x2="1" y1="1" y2="0">
                            <stop id="stop1" stop-color="rgba(248, 117, 55, 1)" offset="0%"></stop>
                            <stop id="stop2" stop-color="rgba(251, 168, 31, 1)" offset="100%"></stop>
                        </linearGradient>
                    </defs>
                <path fill="url(#sw-gradient)" d="M21.2,-37.3C27.6,-33,32.9,-27.6,36.5,-21.1C40.1,-14.7,42,-7.4,42.1,0.1C42.3,7.5,40.6,15,36.6,20.8C32.6,26.5,26.3,30.5,19.8,33.4C13.3,36.4,6.6,38.3,0,38.2C-6.5,38.2,-13.1,36.1,-18.7,32.6C-24.3,29.1,-28.9,24.2,-33.5,18.6C-38.1,12.9,-42.6,6.4,-43,-0.2C-43.3,-6.8,-39.4,-13.7,-35.5,-20.6C-31.7,-27.5,-27.8,-34.4,-21.9,-38.9C-15.9,-43.4,-8,-45.5,-0.3,-45C7.4,-44.5,14.8,-41.5,21.2,-37.3Z" width="100%" height="100%" transform="translate(50 50)" stroke-width="0" style="transition: all 0.3s ease 0s;"></path>
              </svg>