<?xml version="1.0" standalone="no"?>
<svg xmlns:xlink="http://www.w3.org/1999/xlink" id="wave" style="transform:rotate(0deg); transition: 0.3s" viewBox="0 0 1440 310" version="1.1" xmlns="http://www.w3.org/2000/svg"><defs><linearGradient id="sw-gradient-0" x1="0" x2="0" y1="1" y2="0"><stop stop-color="rgba(41.387, 22.476, 52.686, 1)" offset="0%"/><stop stop-color="rgba(146.671, 95.553, 207.508, 1)" offset="100%"/></linearGradient></defs><path style="transform:translate(0, 0px); opacity:1" fill="url(#sw-gradient-0)" d="M0,155L10,175.7C20,196,40,238,60,227.3C80,217,100,155,120,108.5C140,62,160,31,180,31C200,31,220,62,240,62C260,62,280,31,300,62C320,93,340,186,360,191.2C380,196,400,114,420,72.3C440,31,460,31,480,36.2C500,41,520,52,540,67.2C560,83,580,103,600,124C620,145,640,165,660,175.7C680,186,700,186,720,170.5C740,155,760,124,780,98.2C800,72,820,52,840,51.7C860,52,880,72,900,77.5C920,83,940,72,960,93C980,114,1000,165,1020,191.2C1040,217,1060,217,1080,191.2C1100,165,1120,114,1140,82.7C1160,52,1180,41,1200,31C1220,21,1240,10,1260,15.5C1280,21,1300,41,1320,82.7C1340,124,1360,186,1380,222.2C1400,258,1420,269,1430,273.8L1440,279L1440,310L1430,310C1420,310,1400,310,1380,310C1360,310,1340,310,1320,310C1300,310,1280,310,1260,310C1240,310,1220,310,1200,310C1180,310,1160,310,1140,310C1120,310,1100,310,1080,310C1060,310,1040,310,1020,310C1000,310,980,310,960,310C940,310,920,310,900,310C880,310,860,310,840,310C820,310,800,310,780,310C760,310,740,310,720,310C700,310,680,310,660,310C640,310,620,310,600,310C580,310,560,310,540,310C520,310,500,310,480,310C460,310,440,310,420,310C400,310,380,310,360,310C340,310,320,310,300,310C280,310,260,310,240,310C220,310,200,310,180,310C160,310,140,310,120,310C100,310,80,310,60,310C40,310,20,310,10,310L0,310Z"/></svg>